HIERARCHY
ROOT Hips
{
  OFFSET 2.26061 22.2878 23.7974
  CHANNELS 6 Xposition Yposition Zposition Zrotation Xrotation Yrotation
  JOINT LeftUpLeg
  {
    OFFSET 8.64259 1.95398 -2.38835
    CHANNELS 3 Zrotation Xrotation Yrotation
    JOINT LeftLeg
    {
      OFFSET 43.7702 0 0
      CHANNELS 3 Zrotation Xrotation Yrotation
      JOINT LeftFoot
      {
        OFFSET 40.6238 0 0
        CHANNELS 3 Zrotation Xrotation Yrotation
        JOINT LeftToeBase
        {
          OFFSET 12.7242 0 0
          CHANNELS 3 Zrotation Xrotation Yrotation
          End Site
          {
            OFFSET 0 0 0
          }
        }
      }
    }
  }
  JOINT RightUpLeg
  {
    OFFSET -8.2249 1.95398 -2.59336
    CHANNELS 3 Zrotation Xrotation Yrotation
    JOINT RightLeg
    {
      OFFSET 43.5653 0 0
      CHANNELS 3 Zrotation Xrotation Yrotation
      JOINT RightFoot
      {
        OFFSET 40.6238 0 0
        CHANNELS 3 Zrotation Xrotation Yrotation
        JOINT RightToeBase
        {
          OFFSET 12.7242 0 0
          CHANNELS 3 Zrotation Xrotation Yrotation
          End Site
          {
            OFFSET 0 0 0
          }
        }
      }
    }
  }
  JOINT Spine
  {
    OFFSET 0.165834 0.87714 6.61349
    CHANNELS 3 Zrotation Xrotation Yrotation
    JOINT Spine1
    {
      OFFSET 7.38963 1.71661e-005 0
      CHANNELS 3 Zrotation Xrotation Yrotation
      JOINT Spine2
      {
        OFFSET 11.9445 1.14441e-005 0
        CHANNELS 3 Zrotation Xrotation Yrotation
        JOINT Spine3
        {
          OFFSET 14.7254 4.19617e-005 0
          CHANNELS 3 Zrotation Xrotation Yrotation
          JOINT Spine4
          {
            OFFSET 10.9679 0 0
            CHANNELS 3 Zrotation Xrotation Yrotation
            JOINT RightShoulder
            {
              OFFSET 2.46616 -1.6653 3.69651
              CHANNELS 3 Zrotation Xrotation Yrotation
              JOINT RightArm
              {
                OFFSET 13.0012 0 0
                CHANNELS 3 Zrotation Xrotation Yrotation
                JOINT RightForeArm
                {
                  OFFSET 28.7848 1.52588e-005 0
                  CHANNELS 3 Zrotation Xrotation Yrotation
                  JOINT RightHand
                  {
                    OFFSET 26.5688 1.52588e-005 0
                    CHANNELS 3 Zrotation Xrotation Yrotation
                    End Site
                    {
                      OFFSET 0 0 0
                    }
                  }
                }
              }
            }
            JOINT LeftShoulder
            {
              OFFSET 2.38034 -1.29275 -3.7523
              CHANNELS 3 Zrotation Xrotation Yrotation
              JOINT LeftArm
              {
                OFFSET 16.3182 6.10351e-005 0
                CHANNELS 3 Zrotation Xrotation Yrotation
                JOINT LeftForeArm
                {
                  OFFSET 27.0901 0 0
                  CHANNELS 3 Zrotation Xrotation Yrotation
                  JOINT LeftHand
                  {
                    OFFSET 24.5451 1.52588e-005 0
                    CHANNELS 3 Zrotation Xrotation Yrotation
                    End Site
                    {
                      OFFSET 0 0 0
                    }
                  }
                }
              }
            }
            JOINT Neck
            {
              OFFSET 5.0226 -0.0266342 0
              CHANNELS 3 Zrotation Xrotation Yrotation
              JOINT Head
              {
                OFFSET 6.69363 2.86102e-005 0
                CHANNELS 3 Zrotation Xrotation Yrotation
                End Site
                {
                  OFFSET 0 0 0
                }
              }
            }
          }
        }
      }
    }
  }
}
MOTION
Frames:	10
Frame Time:	0.0416667
-129.218 95.1099 -97.421 92.4537 -39.8004 90.8073 -173.224 23.3283 88.4276 -25.9927 12.4381 -1.20628 57.4545 0.524282 3.59333 39.9575 9.25233 8.09674 176.725 5.62776 94.1912 -30.163 -1.99178 -3.42449 73.9438 -5.58725 -2.70505 33.746 0.303811 -2.64825 0.500715 7.69093 -89.9721 11.4926 1.00932 -0.0473309 -0.17795 1.00626 -0.0917204 -22.7161 0.976872 0.258227 -2.70346 0.976879 0.258228 90.089 -54.0318 -99.7937 9.9285 -5.95545 -7.30072 -12.5889 -24.1131 -54.7301 -9.33645 -0.920248 3.32328 -106.309 -54.2985 56.8782 -14.4987 6.60605 13.2867 3.33707 2.157 -42.894 12.7439 0.586342 0.728159 5.66793 -1.28476 5.50104 6.32614 -2.33838 -2.06888 
-132.653 96.208 -100.111 92.5906 -39.2627 89.9872 -172.354 20.5737 88.6557 -35.6265 10.2374 -1.19508 56.0462 -0.377562 3.41083 42.3903 11.0532 4.22664 176.341 7.38054 93.1577 -27.5843 -3.04155 -3.2769 69.6631 -3.86771 -1.9945 33.3253 0.291536 -2.75753 0.385149 7.57693 -89.8517 11.7195 0.835669 0.207491 0.0487598 0.844005 0.170501 -22.488 0.73469 0.449067 -2.47538 0.734673 0.449062 91.1886 -54.8364 -98.0297 10.1605 -7.53189 -3.21458 -12.366 -24.3173 -54.7761 -7.82853 -0.776878 2.38794 -105.861 -53.0097 56.9462 -14.4639 6.75699 12.5051 5.06336 3.21216 -46.0701 11.6464 0.574428 1.04489 3.59939 -2.07021 3.04217 6.59849 -2.48865 -0.171522 
-135.874 96.6272 -102.953 92.1655 -39.2879 89.2419 -171.453 16.8777 89.5563 -42.4683 8.48674 -1.05085 55.2704 -0.842944 2.45599 39.5568 8.83484 7.20716 176.031 9.61631 92.4971 -25.5257 -3.18644 -2.90752 67.4779 -3.00614 -1.5745 30.6862 0.209381 -2.25929 0.221782 7.42366 -89.8122 12.026 0.529783 0.317325 0.355111 0.543226 0.293698 -22.1803 0.409917 0.461874 -2.16766 0.409913 0.46187 91.6518 -55.0406 -97.3199 10.5612 -8.43128 0.103319 -12.9389 -25.2936 -54.8118 -7.23025 -0.783496 2.62654 -104.938 -52.401 57.9626 -14.329 5.8787 12.1708 8.22758 4.26151 -50.8618 9.22103 0.454521 0.959899 3.54023 -2.23692 2.79809 5.59902 -2.61995 -0.210666 
-139.171 96.0375 -106.104 91.8285 -39.4061 89.3508 -171.213 12.495 91.1494 -46.595 8.34423 -0.328921 52.1217 -3.21232 2.21725 37.659 7.0688 3.75484 176.32 12.33 92.7393 -24.8631 -2.99543 -2.71071 67.9331 -3.28756 -1.72567 27.701 0.0845502 -1.93523 -0.00435631 7.32054 -89.8614 12.2326 0.0571061 0.270224 0.56159 0.0689656 0.267438 -21.9734 -0.0267401 0.2749 -1.9607 -0.0267523 0.274887 91.5597 -55.579 -97.3545 10.1249 -8.96289 3.10024 -11.7226 -23.9414 -53.4542 -6.62836 -0.696733 1.90189 -104.07 -51.8728 58.9507 -13.8862 4.40898 12.134 8.86263 2.88926 -55.7314 8.38131 0.448643 1.35557 4.4752 -1.84392 2.28396 4.25814 -2.14153 0.249369 
-142.779 94.8816 -109.617 91.0763 -39.2446 89.274 -171.833 8.42511 92.1981 -48.0007 11.3111 0.699103 49.5313 -5.29805 0.019505 38.8936 8.2541 7.18901 177.283 17.9451 93.2598 -28.2322 -1.88951 -2.99859 67.5466 -3.32055 -1.76855 28.0161 -0.0179126 -0.28673 -0.268105 7.29087 -89.9216 12.2927 -0.495602 0.212453 0.621802 -0.485761 0.234052 -21.9141 -0.536516 0.0536812 -1.90145 -0.536534 0.053674 92.1008 -55.273 -96.6268 9.88404 -8.7001 3.72242 -10.9838 -23.6611 -53.1266 -7.88271 -0.728738 1.82769 -103.42 -51.4164 59.6754 -12.9571 1.87046 10.7645 10.3174 2.54022 -59.3344 9.07325 0.534109 1.85695 6.25031 -1.53219 1.76942 3.2496 -1.75837 0.642899 
-146.771 93.3722 -113.678 91.5529 -39.0739 90.3153 -173.073 4.43379 92.5772 -48.9747 16.2275 2.10834 50.6991 -4.70522 0.417646 43.2852 12.1356 7.21324 178.524 23.4001 93.8659 -31.8437 -0.715096 -3.25031 66.0374 -3.10159 -1.68918 30.5296 0.119285 -0.574063 -0.526712 7.38744 -90.0147 12.0996 -1.05398 0.0868443 0.42905 -1.04913 0.13315 -22.1093 -1.03134 -0.233965 -2.09661 -1.03134 -0.233964 92.4839 -55.7106 -95.9986 9.3933 -7.64791 3.13019 -9.95822 -23.4241 -51.9734 -7.84701 -0.770044 2.47829 -103.771 -51.5722 59.2456 -10.8531 -0.168992 10.0118 10.7819 2.05994 -61.7818 10.0569 0.560702 1.59549 6.47915 -1.30888 1.05759 3.5128 -1.39045 1.10088 
-150.92 92.1297 -117.852 91.5339 -37.4122 90.7813 -174.903 2.05666 92.1406 -48.3578 21.1684 3.70253 53.5698 -2.74128 -0.549609 48.0216 17.2148 11.9821 179.199 27.6088 93.7291 -32.3065 -0.630568 -3.5125 63.8219 -2.29353 -1.25032 32.8068 0.260809 -2.79262 -0.807995 7.45408 -90.0553 11.9676 -1.6326 0.0662154 0.297727 -1.62809 0.13802 -22.2454 -1.577 -0.427636 -2.23276 -1.57699 -0.427632 93.0978 -56.7789 -94.9489 9.47069 -5.03481 2.82027 -11.0083 -23.876 -51.0539 -7.90638 -0.931076 4.39118 -104.561 -50.6838 57.7677 -9.59704 -1.30455 8.75952 11.5283 2.41229 -62.1877 10.9619 0.754079 2.84587 6.63398 -1.61926 -0.0130882 3.85234 -1.49817 1.28227 
-155.455 91.4886 -122.589 91.2465 -36.6528 90.7702 -174.959 1.78953 91.2217 -45.2227 22.9007 3.70366 58.4619 1.191 2.84501 52.7628 21.3311 10.713 179.458 29.4632 92.9904 -27.9233 -1.33389 -3.63947 63.5439 -2.24991 -1.23213 37.8824 0.391888 -4.30823 -0.879104 7.58437 -90.0831 11.7062 -1.78748 0.0212835 0.0365043 -1.7848 0.0999502 -22.5079 -1.71122 -0.517077 -2.49524 -1.71121 -0.51708 92.6959 -57.3262 -95.433 9.88537 -2.85119 2.40301 -8.65906 -21.0548 -48.5605 -8.04372 -0.878817 4.05326 -105.236 -50.5962 56.7796 -7.98001 -1.56508 5.15191 11.7371 3.29735 -59.8678 11.6178 0.787136 2.77928 6.32094 -2.14599 -0.98004 5.00875 -1.81837 1.57689 
-160.775 91.1773 -127.579 91.723 -37.1859 90.1479 -172.749 3.3147 89.9539 -42.5657 18.4059 1.37416 65.6624 7.41307 6.11779 50.3664 18.872 9.60744 179.735 27.7393 92.0932 -18.5902 -1.73951 -4.07473 68.3844 -4.43201 -2.35809 38.964 0.428813 -3.24541 -0.831164 7.80365 -89.9017 11.27 -1.6083 0.355028 -0.400008 -1.59112 0.425484 -22.9432 -1.64063 -0.144869 -2.9305 -1.64063 -0.144881 91.8121 -58.7397 -96.4422 9.23807 -1.70758 2.06418 -8.00223 -19.3978 -48.9823 -7.33964 -0.770716 3.38685 -104.68 -49.5929 57.1313 -7.81184 -1.34453 2.89616 11.6793 3.62781 -58.5918 10.4619 0.691286 2.57286 6.80917 -2.64812 -3.2885 5.99073 -1.80209 2.61752 
-165.822 91.0399 -132.31 91.2344 -38.1834 89.0946 -171.94 6.5037 88.1832 -40.7935 16.3447 -0.252853 68.4704 11.3421 12.0463 48.6251 15.9475 2.58822 178.413 25.3234 91.6835 -8.72957 1.68187 -3.10833 68.3982 -4.74235 -2.54495 38.8278 0.41421 -3.59959 -0.736858 7.89894 -89.765 11.0798 -1.35769 0.598484 -0.590605 -1.33001 0.657662 -23.1313 -1.47478 0.162693 -3.11867 -1.47476 0.16269 91.6671 -58.7022 -96.6505 9.59929 -2.83246 1.38273 -5.53 -16.5779 -50.787 -9.81537 -0.822816 2.86625 -104.693 -48.6584 56.7037 -7.62758 0.0962004 3.34251 10.1733 3.08894 -58.0608 12.1472 0.791963 2.54555 7.07911 -2.78979 -3.84061 6.86283 -1.78653 2.92364 
